<?xml version="1.0" standalone="no"?>
<!DOCTYPE svg PUBLIC "-//W3C//DTD SVG 20010904//EN"
 "http://www.w3.org/TR/2001/REC-SVG-20010904/DTD/svg10.dtd">
<svg version="1.0" xmlns="http://www.w3.org/2000/svg"
 width="256.000000pt" height="256.000000pt" viewBox="0 0 256.000000 256.000000"
 preserveAspectRatio="xMidYMid meet">
<metadata>
Created by potrace 1.11, written by Peter Selinger 2001-2013
</metadata>
<g transform="translate(0.000000,256.000000) scale(0.100000,-0.100000)"
fill="#000000" stroke="none">
<path d="M996 2549 c-10 -6 -26 -19 -35 -29 -9 -9 -38 -40 -66 -69 l-49 -51
57 0 c53 0 60 3 97 40 22 22 44 40 50 40 5 0 28 -18 51 -40 l42 -40 249 0
c136 0 248 3 248 7 0 3 -12 30 -26 59 -55 112 -93 118 -263 40 -68 -31 -127
-56 -130 -56 -3 0 -28 21 -56 46 -69 64 -122 80 -169 53z"/>
<path d="M640 2297 c-19 -12 -45 -38 -57 -56 l-23 -34 0 -886 0 -887 26 -40
c48 -73 3 -69 685 -72 l615 -3 34 23 c18 13 43 36 54 51 21 28 21 31 21 926 0
714 -3 903 -13 922 -7 13 -29 35 -49 49 l-37 25 -611 3 -611 2 -34 -23z m258
-179 c24 -68 56 -158 72 -200 l29 -78 -34 0 c-31 0 -34 3 -50 53 -10 28 -23
57 -31 63 -7 6 -41 10 -75 9 l-62 -1 -20 -62 c-20 -59 -23 -62 -53 -62 l-32 0
35 98 c19 53 41 115 49 137 8 22 24 68 36 103 21 60 23 62 58 62 l35 0 43
-122z m415 -437 c28 -51 146 -207 189 -251 114 -117 147 -221 97 -310 -53 -94
-181 -105 -264 -23 l-25 26 0 -29 c0 -53 21 -104 55 -137 19 -19 35 -36 35
-38 0 -3 -174 -3 -230 0 -9 1 0 15 24 40 36 37 56 86 55 141 l0 25 -18 -22
c-33 -40 -97 -66 -147 -60 -85 9 -143 74 -145 162 -2 71 33 130 165 279 37 41
131 172 151 209 11 20 22 37 25 37 3 0 17 -22 33 -49z m329 -923 c24 -82 25
-83 102 -83 l68 0 21 63 c20 59 22 62 53 62 l32 0 -24 -67 c-14 -38 -37 -104
-53 -148 -16 -44 -36 -98 -45 -120 -9 -22 -17 -41 -17 -42 4 -17 -5 -23 -36
-23 l-38 0 -36 103 c-21 56 -53 146 -73 200 l-35 97 34 0 c32 0 35 -3 47 -42z"/>
<path d="M788 2089 l-26 -79 54 0 c30 0 54 4 54 8 0 12 -37 118 -47 135 -5 10
-17 -11 -35 -64z"/>
<path d="M1690 622 c0 -11 45 -141 51 -146 2 -2 16 32 31 75 l26 79 -54 0
c-30 0 -54 -4 -54 -8z"/>
<path d="M325 2038 c-143 -66 -162 -78 -181 -124 -15 -36 -7 -77 31 -152 l24
-47 -22 -24 c-12 -13 -55 -58 -94 -100 -75 -79 -92 -114 -79 -168 7 -27 52
-73 360 -370 l116 -113 0 59 0 58 -181 174 c-100 96 -185 176 -189 179 -4 3
-13 16 -19 28 -14 26 -21 16 89 134 l54 58 39 -82 c21 -46 75 -162 119 -258
45 -96 83 -177 84 -179 2 -2 4 219 4 492 0 391 -3 497 -12 496 -7 0 -71 -28
-143 -61z"/>
<path d="M2080 1558 l0 -56 156 -148 c166 -158 224 -216 238 -241 8 -15 7 -17
-100 -131 l-50 -52 -119 260 -120 261 -3 -251 c-1 -137 -1 -362 0 -498 l3
-249 105 48 c161 74 192 92 213 121 28 38 25 84 -10 160 l-31 66 94 98 c154
163 153 164 -103 411 -234 224 -222 213 -250 237 l-23 19 0 -55z"/>
<path d="M880 237 c0 -2 6 -17 14 -33 8 -16 28 -58 44 -94 58 -128 96 -136
271 -56 68 31 127 56 131 56 5 0 23 -15 42 -33 77 -76 127 -94 178 -67 17 9
110 101 196 195 l28 30 -54 3 -55 3 -77 -80 c-42 -45 -81 -81 -86 -81 -12 0
-88 67 -82 72 3 2 43 23 90 45 l85 42 -362 0 c-200 1 -363 -1 -363 -2z"/>
</g>
</svg>
